# xmcd
#
# Track frame offsets:
#	182
#	17475
#	54002
#	86955
#	120340
#	137317
#
# Disc length: 2101 seconds
# Revision: 0
# Processed by: cddbd v1.5.2PL0 Copyright (c) Steve Scherf et al.
# Submitted via: dBpowerAMP V12.0
#
DISCID=3a083306
DTITLE=Jana - Ooh Baby, Baby
DYEAR=1999
DGENRE=House
TTITLE0=Ooh Baby, Baby [Dance/Remix Edit]
TTITLE1=Ooh Baby, Baby [Slim Razor Mix]
TTITLE2=Ooh Baby, Baby [Sugarlove Dub Mix]
TTITLE3=Ooh Baby, Baby [New Frontier Mix]
TTITLE4=Ooh Baby, Baby [Euro Radio Edit]
TTITLE5=Ooh Baby, Baby [Urban Smooth Jam Mix]
EXTD=
EXTT0=
EXTT1=
EXTT2=
EXTT3=
EXTT4=
EXTT5=
PLAYORDER=
